<?xml version="1.0" encoding="iso-8859-1"?>
<!-- Generator: Adobe Illustrator 18.0.0, SVG Export Plug-In . SVG Version: 6.00 Build 0)  -->
<!DOCTYPE svg PUBLIC "-//W3C//DTD SVG 1.1//EN" "http://www.w3.org/Graphics/SVG/1.1/DTD/svg11.dtd">
<svg version="1.1" id="Capa_1" xmlns="http://www.w3.org/2000/svg" xmlns:xlink="http://www.w3.org/1999/xlink" x="0px" y="0px"
	 viewBox="0 0 461.409 461.409" style="enable-background:new 0 0 461.409 461.409;" xml:space="preserve">
<g>
	<path style="fill:#90C8EC;" d="M209.997,441.409c35.886,0,67.821-24.811,89.921-69.862c1.25-2.548,2.459-5.153,3.634-7.804
		c-1.723,0.109-3.45,0.163-5.176,0.163c-18.956,0-37.901-6.559-53.122-19.674c-0.065,0.133-0.128,0.271-0.193,0.404
		c-10.63,21.668-24.393,35.669-35.063,35.669c-10.67,0-24.434-14.001-35.064-35.67c-14.465-29.487-22.762-71.013-22.762-113.931
		c0-42.917,8.297-84.444,22.763-113.931c10.629-21.668,24.393-35.67,35.063-35.67c0.333,0,0.67,0.014,1.009,0.041
		c10.518,0.842,23.756,14.638,34.054,35.629c3.089,6.296,5.894,13.146,8.399,20.437c7.377,21.465,12.137,46.786,13.75,73.324h-0.135
		c0.381,4.294,0.707,8.628,0.973,13h-31.5c-2.326,0-4.477,1.005-5.992,2.659l62.063,62.063c1.589,1.589,3.673,2.384,5.756,2.384
		c2.083,0,4.166-0.795,5.756-2.384l63.8-63.801c-1.132-0.585-2.401-0.921-3.729-0.921h-33.785c-0.22-4.363-0.516-8.697-0.877-13
		h-1.123c-0.236-4.677-0.551-9.323-0.949-13.93c-0.534-6.179-1.231-12.278-2.051-18.303c-1.676-9.645-3.716-19.036-6.121-28.091h0
		c-4.548-17.127-10.373-33.072-17.377-47.349c-15.021-30.621-34.586-51.891-56.846-62.375c-2.303-1.085-4.635-2.054-6.993-2.906
		c-8.386-3.03-17.11-4.581-26.082-4.581c-35.886,0-67.821,24.811-89.921,69.862c-18.706,38.131-29.008,88.15-29.008,140.843
		c0,17.771,1.176,35.236,3.447,52.045c4.838,28.026,12.808,53.878,23.561,75.797C142.176,416.598,174.111,441.409,209.997,441.409z"
		/>
	<path style="fill:#2C3D8E;" d="M209.997,20c8.972,0,17.696,1.551,26.082,4.581c2.359,0.852,4.69,1.821,6.993,2.906
		c22.26,10.484,41.825,31.754,56.846,62.375c7.004,14.277,12.829,30.222,17.377,47.349h0c4.941,18.609,8.375,38.613,10.171,59.395
		c0.398,4.607,0.713,9.253,0.949,13.93h33.785c3.292,0,6.26,1.983,7.52,5.025c0.417,1.007,0.62,2.065,0.62,3.113
		c0,2.118-0.827,4.2-2.385,5.757l-63.826,63.827c-1.589,1.589-3.673,2.384-5.756,2.384c-2.083,0-4.166-0.795-5.756-2.384
		l-63.826-63.827c-1.557-1.557-2.384-3.639-2.385-5.757c0-1.049,0.203-2.106,0.62-3.113c1.26-3.042,4.228-5.025,7.52-5.025h32.662
		c-1.613-26.538-6.373-51.86-13.75-73.324c-2.506-7.291-5.311-14.141-8.399-20.437c-10.298-20.991-23.536-34.787-34.054-35.629
		c-0.339-0.027-0.676-0.041-1.009-0.041c-10.67,0-24.434,14.001-35.063,35.67c-14.466,29.488-22.763,71.014-22.763,113.931
		c0,42.917,8.297,84.444,22.762,113.931c10.63,21.668,24.394,35.67,35.064,35.67c10.67,0,24.433-14,35.063-35.669
		c0.065-0.133,0.128-0.271,0.193-0.404c15.222,13.115,34.166,19.674,53.122,19.674c1.726,0,3.453-0.054,5.176-0.163
		c-1.174,2.651-2.384,5.256-3.634,7.804c-22.1,45.051-54.034,69.862-89.921,69.862s-67.821-24.811-89.921-69.862
		c-18.706-38.131-29.008-88.15-29.008-140.842c0-52.693,10.302-102.712,29.008-140.843C142.176,44.811,174.111,20,209.997,20
		 M209.997,0c-22.409,0-43.403,7.484-62.401,22.243c-17.827,13.85-33.127,33.636-45.477,58.81
		c-20.024,40.818-31.052,93.965-31.052,149.652c0,55.686,11.028,108.833,31.052,149.651c12.349,25.174,27.65,44.96,45.476,58.81
		c18.997,14.76,39.992,22.243,62.401,22.243s43.404-7.484,62.401-22.243c17.827-13.85,33.127-33.636,45.476-58.81
		c1.323-2.697,2.657-5.561,3.964-8.512c2.831-6.391,2.12-13.796-1.875-19.531c-3.753-5.389-9.894-8.569-16.408-8.569
		c-0.419,0-0.84,0.013-1.262,0.04c-1.299,0.082-2.617,0.124-3.916,0.124c-14.742,0-28.971-5.265-40.068-14.826
		c-3.664-3.156-8.307-4.849-13.055-4.849c-1.344,0-2.696,0.135-4.037,0.412c-6.077,1.252-11.229,5.255-13.945,10.833
		c-0.064,0.132-0.128,0.266-0.192,0.401l0.02-0.04c-7.084,14.441-13.843,21.222-17.102,23.652
		c-3.26-2.43-10.019-9.214-17.108-23.663c-13.166-26.84-20.718-65.155-20.718-105.122c0-39.967,7.552-78.283,20.719-105.123
		c7.088-14.45,13.847-21.233,17.107-23.663c3.26,2.43,10.019,9.214,17.107,23.663c2.683,5.469,5.187,11.568,7.441,18.129
		c4.826,14.043,8.438,29.952,10.667,46.824h-10.664c-11.422,0-21.627,6.819-25.998,17.371c-1.421,3.431-2.142,7.054-2.142,10.767
		c0.001,7.52,2.929,14.587,8.244,19.901l63.824,63.825c5.315,5.315,12.382,8.242,19.898,8.242c7.516,0,14.583-2.927,19.897-8.241
		l63.827-63.827c5.315-5.315,8.242-12.382,8.242-19.899c0-3.712-0.721-7.333-2.142-10.765
		c-4.372-10.554-14.576-17.373-25.998-17.373h-15.208c-1.982-20.349-5.465-39.995-10.367-58.458
		c-4.916-18.516-11.225-35.683-18.751-51.024c-16.879-34.408-39.799-59.188-66.28-71.66c-2.856-1.345-5.789-2.564-8.719-3.623
		C232.278,1.942,221.216,0,209.997,0L209.997,0z"/>
</g>
<g>
</g>
<g>
</g>
<g>
</g>
<g>
</g>
<g>
</g>
<g>
</g>
<g>
</g>
<g>
</g>
<g>
</g>
<g>
</g>
<g>
</g>
<g>
</g>
<g>
</g>
<g>
</g>
<g>
</g>
</svg>
