<?xml version="1.0" encoding="iso-8859-1"?>
<!-- Generator: Adobe Illustrator 18.0.0, SVG Export Plug-In . SVG Version: 6.00 Build 0)  -->
<!DOCTYPE svg PUBLIC "-//W3C//DTD SVG 1.1//EN" "http://www.w3.org/Graphics/SVG/1.1/DTD/svg11.dtd">
<svg version="1.1" id="Capa_1" xmlns="http://www.w3.org/2000/svg" xmlns:xlink="http://www.w3.org/1999/xlink" x="0px" y="0px"
	 viewBox="0 0 456.379 456.379" style="enable-background:new 0 0 456.379 456.379;" xml:space="preserve">
<g>
	<path style="fill:#90C8EC;" d="M33.924,372.04h250.713l133.748-126.793L267.637,102.339H20v255.778
		C20,365.807,26.234,372.04,33.924,372.04z"/>
	<path style="fill:#2C3D8E;" d="M284.637,84.338l151.742,143.851L284.637,372.04H33.924c-7.69,0-13.924-6.234-13.924-13.924V98.262
		c0-7.69,6.234-13.924,13.924-13.924H284.637 M284.637,64.338H33.924C15.218,64.338,0,79.557,0,98.262v259.854
		c0,18.706,15.218,33.924,33.924,33.924h250.713c5.12,0,10.044-1.963,13.76-5.485l151.742-143.851
		c3.984-3.777,6.24-9.025,6.24-14.515s-2.256-10.738-6.24-14.515L298.397,69.824C294.682,66.302,289.757,64.338,284.637,64.338
		L284.637,64.338z"/>
</g>
<g>
</g>
<g>
</g>
<g>
</g>
<g>
</g>
<g>
</g>
<g>
</g>
<g>
</g>
<g>
</g>
<g>
</g>
<g>
</g>
<g>
</g>
<g>
</g>
<g>
</g>
<g>
</g>
<g>
</g>
</svg>
